<mxfile host="app.diagrams.net" agent="Mozilla/5.0 (Windows NT 10.0; Win64; x64) AppleWebKit/537.36 (KHTML, like Gecko) Chrome/134.0.0.0 Safari/537.36" version="26.2.3">
  <diagram name="Página-1" id="QYA5CxdgEJGF6k_z-Vw2">
    <mxGraphModel dx="1424" dy="1607" grid="0" gridSize="10" guides="1" tooltips="1" connect="1" arrows="1" fold="1" page="0" pageScale="1" pageWidth="827" pageHeight="1169" background="#ffffff" math="0" shadow="0">
      <root>
        <mxCell id="0" />
        <mxCell id="1" parent="0" />
        <mxCell id="CzqZt7TXCMdeZpQBuqKh-14" value="" style="shape=folder;fontStyle=1;spacingTop=10;tabWidth=40;tabHeight=14;tabPosition=left;html=1;whiteSpace=wrap;sketch=1;curveFitting=1;jiggle=2;labelBackgroundColor=none;fontFamily=Verdana;fontColor=#143642;fillColor=#FAE5C7;strokeColor=#0F8B8D;" parent="1" vertex="1">
          <mxGeometry x="-59" y="-208" width="404" height="198" as="geometry" />
        </mxCell>
        <mxCell id="CzqZt7TXCMdeZpQBuqKh-15" value="&lt;span style=&quot;font-size: 12px;&quot;&gt;Conta&lt;/span&gt;" style="text;html=1;align=center;verticalAlign=middle;whiteSpace=wrap;rounded=0;fontSize=16;fontStyle=2;sketch=1;curveFitting=1;jiggle=2;labelBackgroundColor=none;fontFamily=Verdana;fontColor=#143642;" parent="1" vertex="1">
          <mxGeometry x="113" y="-194" width="60" height="30" as="geometry" />
        </mxCell>
        <mxCell id="CzqZt7TXCMdeZpQBuqKh-49" value="&lt;span style=&quot;font-size: 12px;&quot;&gt;Atributos&lt;/span&gt;" style="text;html=1;align=center;verticalAlign=middle;whiteSpace=wrap;rounded=0;fontSize=16;sketch=1;curveFitting=1;jiggle=2;labelBackgroundColor=none;fontFamily=Verdana;fontColor=#143642;" parent="1" vertex="1">
          <mxGeometry x="331" y="-255.28" width="60" height="30" as="geometry" />
        </mxCell>
        <mxCell id="CzqZt7TXCMdeZpQBuqKh-80" value="" style="shape=stencil(7VnLchs5DPwaXVkkQBLkOZv8R6rixKo4dspxXn8fMCpOBFDqWe1pa2tvsjzQEEB348EDv/py//bz3YHil5fnp49334/vXu4P/NeB6Ph4f/d8fNFPB3594Ffvn57vPjw/fX18d/r789vx5Pj06enb+IUfJ7uUA5dhRfHn6RsOiX5/8eb0/MPx0T4f2TyfYkgFG5A1qCHuGNgTUQqVoUFK1qCG3rFBtT7TjMI1A7JOs4SCo8TNGOQUpEIDsU5nmV5dNighWh8KhYwN2Oah1JBRWEso1unSQxT8BnukGkOM0OmWvUFrGBo201WhgcJKoTsDCoTeoL9H3kBQpmOg6A06wFILwrc8L4EXD9CB6hIi7HEOnW4Jqaag35IzDkVuAQUHtr+/gzry5y88M3LleUcDJRqjBIdqMcod5ist2lKhv6qeVikUIRnEc4ve9jxNRb52fvv7Kr8V4kdsvpRDCbM+24QpJTiDBCjrXUFIoQC55uyFSN9JwOWcQ7U+jKgBTJc4XdwMGKpvKZ7FGjcGUVJSFZe2HhrwocpEwYYjnl5d1gme8n9eo0BYpXvkjRoFEtdyyI46JVQkdRtzN4MOa1SnWbfPyBzBkXr1pV+LWgFR6kouJ9cRwzsuhBupAQTSMzVrIApg5IQKlpUYkQmva4lga9AIdkiaarKipD8hCExL09YqPFLNPko9wj6yiG94epq1+jKpVXbdGxTxwAdFszdQ5QFwVYI1C9cBL1QaxLeFCuCC2pHuwzoQj7QyeunrWAWG3C9Oo3Ku1cMxqBcoTH/KzWYgkKN6JIdWJSGi3CiJ7g0qVaiPbLMZPzNAaB0l0Nes/VY1+VfAVpV9n6QGjDtPIR+mghqN6OtoF9g5qIGrQYpvQnNS9Eqm2IjIIPnC2zchuRqlBd8JTwCyUA5OAHUhBOHRTStE8QZIK0dvId4HBlEahFg4ykD6BuUWjqLRbZDaQaPONvaqbCykbuhIiiXbPChaGwprv8AHqJXL4NN3Gu8tJucG6A23GnCcB9iqYofSx81Pk01goc7VTw9adxHjdOh340nDel/Z7w1agmgVCtkaSINOtzjbzrP+J6M2UZtpm2lJcCRrWj/cDIqVr8mFoRutY9rSCmi/gqas4bRrRBl3WCq9Fho6hKA5XWPiEqdgQQSqxScu09Tzy1jqfmmlo24CmVYXHYG4zGnzMrzFR4lpt4ez8NaxqQBd0mFbLDR0MGtouNz2cptBhmOTTobk3pCmPF/do1m51xJTkQEtwyXBeXcYuAWo7DUn4pYaBa/Fsl/tKTRQyRoTunVa0dqwGNdlnynoSP+vJ6eQobL7L1xPLg78l9eTPKn+N7fua+HBa/28LHHwvUGeM8X50gfGUyx+dm4+sl8f7lytLHPVzt1N9vHZuRzKnmE7t095VouzbSa63sq+D8bXZ9kPeQTXhmXW3+00EPzFz2sJdmrLFLxtG65Q3UlDhKNa85naUdvor/12nk9e2fBxVGvdlg17m9jPUDiYo6Y65GDtz4Ec8iEU/sFF7c7z+uHPrfD748PD6VL5/P/+Flm/Ot1A8+tf);lineShape=1;sketch=1;curveFitting=1;jiggle=2;labelBackgroundColor=none;fontFamily=Verdana;fontColor=#143642;fillColor=#FAE5C7;strokeColor=#0F8B8D;" parent="1" vertex="1">
          <mxGeometry x="308.00283915000705" y="-250.99522966486882" width="13.777384390674666" height="21.42185634229558" as="geometry" />
        </mxCell>
        <mxCell id="CzqZt7TXCMdeZpQBuqKh-81" value="Aqui foi definido o que é uma &lt;b&gt;&lt;i&gt;C&lt;/i&gt;&lt;/b&gt;&lt;i&gt;&lt;b&gt;onta&lt;/b&gt;&lt;/i&gt;, e o que uma conta deve ter.&lt;div&gt;Isso que define o que cada &lt;b&gt;&lt;i&gt;C&lt;/i&gt;&lt;/b&gt;&lt;i&gt;&lt;b&gt;onta&lt;/b&gt;&lt;/i&gt; vai ter, é chamado de atributos/propriedades.&lt;/div&gt;" style="text;html=1;align=center;verticalAlign=middle;resizable=0;points=[];autosize=1;strokeColor=none;fillColor=none;sketch=1;curveFitting=1;jiggle=2;labelBackgroundColor=none;fontColor=#143642;fontFamily=Verdana;" parent="1" vertex="1">
          <mxGeometry x="-24" y="-302" width="505" height="41" as="geometry" />
        </mxCell>
        <mxCell id="CzqZt7TXCMdeZpQBuqKh-82" value="Quando a&lt;font&gt; variável &lt;code style=&quot;&quot; data-start=&quot;18&quot; data-end=&quot;28&quot;&gt;umaConta&lt;/code&gt;&lt;/font&gt; é criada, um espaço de memória é reservado para armazenar a referência a um objeto.&lt;div&gt;Esse objeto é instanciado a partir de uma classe, e seu construtor é chamado para inicializar seus atributos.&lt;/div&gt;" style="text;html=1;align=center;verticalAlign=middle;resizable=0;points=[];autosize=1;strokeColor=none;fillColor=none;sketch=1;curveFitting=1;jiggle=2;labelBackgroundColor=none;fontColor=#143642;fontFamily=Verdana;" parent="1" vertex="1">
          <mxGeometry x="-131" y="31" width="719" height="41" as="geometry" />
        </mxCell>
        <mxCell id="CzqZt7TXCMdeZpQBuqKh-89" value="Conta" style="swimlane;fontStyle=0;childLayout=stackLayout;horizontal=1;startSize=26;horizontalStack=0;resizeParent=1;resizeParentMax=0;resizeLast=0;collapsible=1;marginBottom=0;whiteSpace=wrap;html=1;sketch=1;hachureGap=4;jiggle=2;curveFitting=1;fontFamily=Verdana;fontColor=#143642;labelBackgroundColor=none;fillColor=#FAE5C7;strokeColor=#0F8B8D;" parent="1" vertex="1">
          <mxGeometry x="3" y="-163" width="284" height="130" as="geometry" />
        </mxCell>
        <mxCell id="CzqZt7TXCMdeZpQBuqKh-91" value="titular" style="text;align=left;verticalAlign=top;spacingLeft=4;spacingRight=4;overflow=hidden;rotatable=0;points=[[0,0.5],[1,0.5]];portConstraint=eastwest;whiteSpace=wrap;html=1;fontFamily=Verdana;fontColor=#143642;labelBackgroundColor=none;" parent="CzqZt7TXCMdeZpQBuqKh-89" vertex="1">
          <mxGeometry y="26" width="284" height="26" as="geometry" />
        </mxCell>
        <mxCell id="CzqZt7TXCMdeZpQBuqKh-90" value="numero" style="text;align=left;verticalAlign=top;spacingLeft=4;spacingRight=4;overflow=hidden;rotatable=0;points=[[0,0.5],[1,0.5]];portConstraint=eastwest;whiteSpace=wrap;html=1;fontFamily=Verdana;fontColor=#143642;labelBackgroundColor=none;" parent="CzqZt7TXCMdeZpQBuqKh-89" vertex="1">
          <mxGeometry y="52" width="284" height="26" as="geometry" />
        </mxCell>
        <mxCell id="CzqZt7TXCMdeZpQBuqKh-92" value="saldo" style="text;align=left;verticalAlign=top;spacingLeft=4;spacingRight=4;overflow=hidden;rotatable=0;points=[[0,0.5],[1,0.5]];portConstraint=eastwest;whiteSpace=wrap;html=1;fontFamily=Verdana;fontColor=#143642;labelBackgroundColor=none;" parent="CzqZt7TXCMdeZpQBuqKh-89" vertex="1">
          <mxGeometry y="78" width="284" height="26" as="geometry" />
        </mxCell>
        <mxCell id="CzqZt7TXCMdeZpQBuqKh-93" value="limite" style="text;align=left;verticalAlign=top;spacingLeft=4;spacingRight=4;overflow=hidden;rotatable=0;points=[[0,0.5],[1,0.5]];portConstraint=eastwest;whiteSpace=wrap;html=1;fontFamily=Verdana;fontColor=#143642;labelBackgroundColor=none;" parent="CzqZt7TXCMdeZpQBuqKh-89" vertex="1">
          <mxGeometry y="104" width="284" height="26" as="geometry" />
        </mxCell>
        <mxCell id="CzqZt7TXCMdeZpQBuqKh-95" value="&lt;font face=&quot;Verdana&quot;&gt;&lt;span style=&quot;white-space: pre;&quot;&gt;&#x9;&lt;/span&gt;Conta umaConta;&lt;/font&gt;&lt;div&gt;&lt;font face=&quot;Verdana&quot;&gt;&lt;span style=&quot;white-space: pre;&quot;&gt;&#x9;&lt;/span&gt;Conta outraConta;&lt;/font&gt;&lt;/div&gt;&lt;div&gt;&lt;br&gt;&lt;/div&gt;&lt;div&gt;&lt;br&gt;&lt;/div&gt;&lt;div&gt;&lt;br&gt;&lt;/div&gt;&lt;div&gt;&lt;br&gt;&lt;/div&gt;&lt;div&gt;&lt;br&gt;&lt;/div&gt;&lt;div&gt;&lt;br&gt;&lt;/div&gt;&lt;div&gt;&lt;br&gt;&lt;/div&gt;&lt;div&gt;&lt;br&gt;&lt;/div&gt;&lt;div&gt;&lt;br&gt;&lt;/div&gt;&lt;div&gt;&lt;br&gt;&lt;/div&gt;&lt;div&gt;&lt;br&gt;&lt;/div&gt;&lt;div&gt;&lt;br&gt;&lt;/div&gt;&lt;div&gt;&lt;br&gt;&lt;/div&gt;&lt;div&gt;&lt;br&gt;&lt;/div&gt;&lt;div&gt;&lt;br&gt;&lt;/div&gt;&lt;div&gt;&lt;br&gt;&lt;/div&gt;&lt;div&gt;&lt;br&gt;&lt;/div&gt;&lt;div&gt;&lt;i&gt;&lt;font face=&quot;Verdana&quot;&gt;&lt;span style=&quot;white-space: pre;&quot;&gt;&#x9;&lt;span style=&quot;white-space: pre;&quot;&gt;&#x9;&lt;/span&gt;&lt;span style=&quot;white-space: pre;&quot;&gt;&#x9;&lt;/span&gt;&lt;span style=&quot;white-space: pre;&quot;&gt;&#x9;&lt;/span&gt;&lt;/span&gt;Execução&lt;/font&gt;&lt;/i&gt;&lt;/div&gt;" style="html=1;whiteSpace=wrap;hachureGap=4;fontFamily=Architects Daughter;fontSource=https%3A%2F%2Ffonts.googleapis.com%2Fcss%3Ffamily%3DArchitects%2BDaughter;align=left;verticalAlign=top;rounded=0;glass=0;shadow=1;fillColor=#FAE5C7;strokeColor=#0F8B8D;labelBackgroundColor=none;fontColor=#143642;" parent="1" vertex="1">
          <mxGeometry x="-145.5" y="107" width="329" height="298" as="geometry" />
        </mxCell>
        <mxCell id="CzqZt7TXCMdeZpQBuqKh-96" value="" style="html=1;whiteSpace=wrap;hachureGap=4;fontFamily=Verdana;align=left;verticalAlign=top;rounded=1;glass=0;shadow=0;fillColor=#FAE5C7;strokeColor=#0F8B8D;sketch=1;curveFitting=1;jiggle=2;labelBackgroundColor=none;fontColor=#143642;" parent="1" vertex="1">
          <mxGeometry x="252.5" y="107" width="329" height="298" as="geometry" />
        </mxCell>
        <mxCell id="CzqZt7TXCMdeZpQBuqKh-97" value="Objeto Conta&lt;div&gt;numero = &quot;&quot;&lt;/div&gt;&lt;div&gt;titular = &quot;&quot;&lt;/div&gt;&lt;div&gt;saldo = 0&lt;/div&gt;" style="rounded=1;whiteSpace=wrap;html=1;hachureGap=4;strokeColor=#0F8B8D;fontFamily=Verdana;fillColor=#FAE5C7;align=left;glass=0;shadow=0;labelBackgroundColor=none;fontColor=#143642;" parent="1" vertex="1">
          <mxGeometry x="277.5" y="133" width="279" height="102.28" as="geometry" />
        </mxCell>
        <mxCell id="CzqZt7TXCMdeZpQBuqKh-100" value="Objeto Conta&lt;div&gt;numero = &quot;&quot;&lt;/div&gt;&lt;div&gt;titular = &quot;&quot;&lt;/div&gt;&lt;div&gt;saldo = 0&lt;/div&gt;" style="rounded=1;whiteSpace=wrap;html=1;hachureGap=4;strokeColor=#0F8B8D;fontFamily=Verdana;fillColor=#FAE5C7;align=left;glass=0;shadow=0;labelBackgroundColor=none;fontColor=#143642;" parent="1" vertex="1">
          <mxGeometry x="277.5" y="269" width="279" height="102.28" as="geometry" />
        </mxCell>
        <mxCell id="CzqZt7TXCMdeZpQBuqKh-79" value="" style="shape=stencil(tVrLchw3DPyavbIIgs+zH//hKsvRVhTJJctO8vcBs8XZZXOnp3TwbUU1ZkAQjwY4J/3w4/HL94dT8D/eXl/+fPj7/PXt8aQfTyGcnx8fXs9v9uukn0764dvL68Mfry8/n79e/v7+pSP7r79efvUn/HOR8y6WLhT8v5eF1pzG/1c+X/BP5+cbvLogM766lvfxyeWI+ETw1UlDvCf6iHcVXlBcFCKgLtVZILuciEB2CgLJlUoEmvMgEF0lKtkhtEXAkzfYKQgI2LkQK9kxpDALBKdMpeIaCIgLjfiFdwFUshVPBILL8xuq2S0QATPi7Bq1uEJcSYvzeRbILrI3NCegUnKeWCkKnnQ171IiEFxNs4C4Rswao4uwae+UCaQRjkOgVFeIe8cyHGETMLsxgYopoyTqS7ENq28CZiXiGsmjexdxmSUZ74pOArlR10jiBASKq8Q1TEBBINGY7gLzprMeqQS+lA83DQGUmkv8HNqcKlM5Ojg/e2tKNC+ZL7XZW1OgZo3ZFdiD53tILsznYO4ohQiYq817sEdU4nwW03k+B3sEizjLGnmOh2j5nASQ5aU0R5zWEeX3BRIWXc08VW5W3wSUVl3dksomICMX7taHedNWuQsTsAo0vyFYXSUqdaYBb4gjn98XsADys4BQ55M6IngIyHaUe0ygzLlVytjVfYHo2uytYnyIkxPIGrZSSEERQerQV9gePCYBW1ESD/bvAEWR1hNLMlBORubcezzkGHNtjs8Qz4MA7hkISoNy8qa4XYsl4nV2oFCrghNmTvMYsP8op3vcMMz73cjiXthAOffU48zc2QNeWWqx2pwBL6xfiCNTXfGMz1sq9AXxLF2H4b03eMbAMqZ3P6jALlNAewZif6uQCfWPrIo3LJmeVv0cnaI/VKJPXpqRbUN38UbNgPibfxL7l4oVXGh6MIKskNap/Y3jZ8QzgmBtyoJn8WudFuQrpXzC2uMYAc/aTcNnzD+R+L/hq0c8KTGGh/PS4YC7eKj0tObdw5cDPNqncjxSFUqeuj3n/BNpi9bPqyCe2z+8E+/be/SpSAl0GGwPXxFfmX3qKG8358X83/CLP/Dn1wJ4xiy7fRZ/JvnK8IL6R5If+rgK9TmIx7Tg+fPLEu8H/oz6J+4/DfXJdN7lV4OWgxdkwDPC1DeACrUDA80BHGnB7gcQEc/10d+Kj64s9mQBIMN/bxyCFbyy4j1J6FYgYQIaaGNVtnnqFc8GuFbgIeD5BCpXdFAZBtsjKGEhuAcEyAM+EHsawYpIaNi4qs9VZn08LUidICrgWQdmBDQsBI7gO8FFPOshNSKBO3i+xwLG9bcGoKA+jTUMy/xchsPuNTAZ/SGxcfvSAARaUK0Bq9iAJdbgRRzyboOG+/iATX8cCu42nDM+0XwogvGe6ZhDBBvm4gLHQz6sfAQRRv90MyBgoyDrmCHAhLcAdgJQsoVzXFlm2rbCZkfWZAMJshXW1UpDlmUrbOh3dcqbYRNza/OaAG7KBxG9MYc3ZH4pVJGp2wqrTLp1dlskeMotVfGuzVYCy10Za4EmfmVTcVprK6waxGXy31fISVu6LjA/4g1fjDhmj2mMTPYKCMzw+licT82hBUp+NPl7c3mZDy6FMdXYuyoAUp0iv7UVTMKpjLnYngBmvUadzzQO86b7dQd7Qxg0YhM4uFAJ2Pn1KxvCjLpKIFDobMU2XUGlRgOoXwrNB1eEJoF+GzJbyegbGw+Za0AAlUTv2mLFZFwKHXCZt0L/URqf0G0KbAXI05GDBSQk4xpomrGYhhmjkWg29IkeS1blBUULTjVqprdIPc/BHvg9lWVSuCStPIB04bXN086x1/3ZNRqv01ZvIERb4CVLsXVsyi+FlmGddWNsmiBLN9743bPk5dOKTH2p08PlexLGb1d+ZQIst1bsL1qliS+jc/cRCfNV7K97x0024LH6XEd+O3gYwN2MJHYE4Lrz8AWaFzwJHY9XwteZ6A5elg2zbLHcUPWRB9UfEmTHEx+9h2cdnkeC3hqlnh7ZQp+JkjDevtu5xVN76qKP0vN63ydnx3j7cf2+7dv56enyedzt//F7OFu6fEunn/4D);lineShape=1;sketch=1;curveFitting=1;jiggle=2;labelBackgroundColor=none;fontFamily=Verdana;fontColor=#143642;fillColor=#FAE5C7;strokeColor=#0F8B8D;" parent="1" vertex="1">
          <mxGeometry x="233.00369308318503" y="-244.12385905088894" width="72.78623269326175" height="140.80537626699197" as="geometry" />
        </mxCell>
        <mxCell id="5NkWNDjoCCJj3G5gSJP5-1" value="&lt;font face=&quot;Verdana&quot;&gt;&lt;span style=&quot;font-size: 12px;&quot;&gt;&lt;i&gt;Memória&lt;/i&gt;&lt;/span&gt;&lt;/font&gt;" style="text;strokeColor=none;fillColor=none;html=1;align=center;verticalAlign=middle;whiteSpace=wrap;rounded=0;fontSize=16;fontFamily=Architects Daughter;fontSource=https%3A%2F%2Ffonts.googleapis.com%2Fcss%3Ffamily%3DArchitects%2BDaughter;fontColor=#143642;" vertex="1" parent="1">
          <mxGeometry x="387" y="381" width="60" height="30" as="geometry" />
        </mxCell>
        <mxCell id="5NkWNDjoCCJj3G5gSJP5-57" value="" style="shape=stencil(lVnbUhsxDP2avGpsy9dn2v4HM0DJlAID9Pb3lZvxEsnx2fKWbHTW1v1IOfDV6/318+0huNe3l6dvt7+ON2/3B/50COH4eH/7cnyTTwf+fOCru6eX268vTz8eb07fn6+7ZP/0/elnf8PvE85R8B0U3J/xwKV/D76cxB+Oj0q8Bivu1uKeUjbinNfigZK+jCdf1uJMxSlxwYPLJPJViUcKvBYvQ7MhnuHdGwVtmUoVvN17Kto0/QlQ1jPlpgFMrQJAoho1QDRAgGoNJE8aCAbxZtYAcVjxAMDDhBsgUkYnZPIGUCgDK4kbvHYDO2rADxzIa7NyHGa4DEgUdVxwoRQBoA6bbHEnVwKAKFcygAhDLyZKJrILlQYAYiVWgORH+F5OnWCDL2HHpUyhaEAlB8yaGlWTbp4iiKXMFJIGREpA6ZzHzxugwGjNbWTwABQJeFBgShh+3QA8zHAZkKhppeVJAZ4uUyzJEwdOqJ5YW6lKCQY6VLZ+qIEYmLXm0TA2gEQrMGut1g/yigjyoUkX0GbtrwCx1JiSLgLNUQQ6tDT8ugECtFIrFHRdkjMzSKAmN9ZWapEKSCDvnO0/8o6KzNSo6ZSTJwGZqY3KeAbI+IRaLaAiuzZLF87UWiFKskegHtQBzgJQCnUdpxNg+LXh2TOAAy2lA3SSdu/vXClYgMdWsjqU0YqXgGYBvGPW6QSPAdVbgNuJjTKd8LFwLRRRzs0JIQUfEaCLORdALbuMyFjtNuWQ30nrKV4R3+iAKSMQFe0/RwtAzLIHx6RDw0qbtvV+5jJe86T0TgpNtQzNDheTtOBomgEBZ8QHAdWOPz3AkZWKnTlahq1X+tzchaDjmKLxNA++vOzVJvg8pEB1aox1I6dLvqGtVMt4smI0ZtKqCVLRzpnMCQFaSThY1oVGSBakcTKa6SvJKyIChAtEsQGz5ilFOxXdYceGu7ox6Cz5tyHsBdKNNLUUIeyoy/UZQod3dnBE7lOKPiFJl0OTVhuBsAFkpgax1CctMziJlcCVZJZz2tMymqEFi0yLpvJFHqVtNY8ahi/jJdpr9IlXe5rzaMWrmdrowDxK23Jq1wnEO3sfthkXMD3pmwfthxDhtNh3GzqWgh+GXm1PTAL5BquGZ3slnwc1XW6AzLYrwv3V1tDONkZw4LXTKCYayVpoJ1DHqLBlAlwuhZEm78s3dBlvqxHDTjitJRnStmnpyWPNtBA3SygeplqJm2CGbMqNAf5dHBU5EY9GHI22znbLsKOqobMeLpIuiCNGPl3Gj8ryf6o6yNAmQ7qdmPF2843K5hQEDjavD+/Vd8Tlw/sK/+748HD6B+D8d7vyl0envwv4818=);lineShape=1;strokeColor=#6DC3A9;" vertex="1" parent="1">
          <mxGeometry x="11.52553351559618" y="124.9504672101757" width="228.184019711847" height="30.742566579699922" as="geometry" />
        </mxCell>
        <mxCell id="5NkWNDjoCCJj3G5gSJP5-58" value="" style="shape=stencil(nVjJch03DPyad0WRBNez4/yHqyxHqiiSS1a2v09PXnE8AGfaldzegiZBoLHe9MO3x09fH24pfHt/e/314c+nz++PN/3pltLTy+PD29M7Pt30400/fHl9e/jl7fX3l8/3718/bZLbp99e/9hO+OuOU5VQN1QKf99/iVLDvz/8fJd/fnqx8rUZ+SJaiXyR3I18kzGIfJeUrT5RYr8G5Cg9WUCWngmgSiwW0OcRp4ACBewNCUYjNipVdFhAk6DXgBol2xs0SCNWrVmG9QL8kohKFU90AJiB3NDSAhiixEqtyogGkJOUcg3oQbr1Qy7SIgHked4OwKsINXqfbtq5miSQNwx42r6hlBke5wD15CugNwNUCZYaNUhpBLCHyw7Qyd9zANxkrVS5WWMI3kwN7GNXNFFrpoYoJ/weWao1U2uUTHBEVQvoMkhQw9XRvgH0yuQGkCnZvNfj5OM5v4cPiI6QI3aFTYLNfLgzE1fD6sGatcNzLKhhVpsre5VOVCpDkjVrb/NV54C8qDRoBCEi1Zp14FXkhi1JWJW2IGQFpXrHjSSRVZQwNd4BKpmYFdndlayNvwQQQWb3hiKDcAm51cY0gnYwjWZu3yvW95g910hKWC4gxAgzjx7kK3lA8AUO8omEZ/ChMLo0kjCWjAR5Roog0QYCUhTzWFjs02bmv7BncA6uVH+kr+7lCzk/iS7ymVS2pWmDfCVhqdObB3mWTvPirzY9fiGvycsPYp9Vvk+PXMi7ugy+BaI/3rvwk52vJ+d3on+a5e4YX8Q+cbLlKE/4HGfOPMizfjAsSXRQf4UZTQf78/ywxqPS/OD1b9IIn8NSNdrM8lf5ysV7pT0/+uslXljX9Z/lz4pSZxk9LRkoUoumPgPqUIkHUQmDV7Ixjx6pEJvm6BtHNAfKkkTzLEL7wWo9uu/iAJmmCTTT3QF0NobnHREC2Vkp0TYQc1GymQhtYGRNmnpqb40h8TQ6XTe1oJXNbC5C8V6a5cha2eIfjdazEQBasur6d51muOrfXQuFXpX270vCrpxLYH+zFacmmpH6bvXDIKWEGhuZ3eKi0ZqwjZtueswcEP3qokSaheHX5kZm0JGTz42beR8yzuk9FkCkhQ2zopvitUtlm4g0h6AdUCig9OUGpbW86BxG923KmK68mkHclPODHRVmkGEdlyJtZ2GTaLmEESCRmNbsVYpK85LGpaOloyD+dnuFQgti2r26P5kOFKt8pMUE8i489wdd6m+dzBdgkM/RyWd+fvfns30Zhkb18oE5eJmg+IAG/y76s0UT5IeXZ8sHTav+mZ2fJr0O9mdD9RIyfEv7P9bMP5DHh+877S9Pz8/3lfjxf78Dx0/3/bl+/Ac=);lineShape=1;strokeColor=#6DC3A9;" vertex="1" parent="1">
          <mxGeometry x="226.63813885703712" y="138.23327603138614" width="24.57522147460054" height="30.269361322489395" as="geometry" />
        </mxCell>
        <mxCell id="5NkWNDjoCCJj3G5gSJP5-64" value="" style="shape=stencil(lVvZcl0nEPwavVLsy7OT/IerLMeqOJZLdra/TxOFo0vPuX3Kb9JAAweGWXq4D+ndt0/vvz4+RP/t+8vzb49/PX34/ukh/fQQ49OXT48vT9/x10P6+SG9+/j88vjry/MfXz68/v/1/ew5//r9+c85wt+vOO9yn6Do/1mC2P4T/PLa/fPTl617bVv34HxQ3fug7qXf7x5c2BcTXYiqe+HuLd3vHp3fuyeXxKdGV/PWPTsvFoPBPHVvYnQMto9eXMmqe91Hr86P+92Li5m6d6+6j717k4uproWte3dJKAEG27sPF0R3DJap+xCnOlzcRw/eNbF4NP+vUwcAeiT2Es2+7IDospohuEFafyjHOSCuLzwA2YUqAMl1uobFeTVDdj0woItdRXPbTyFUV9XVrcYyaCVCM6l06PI+orkQYCx7cQ4YLg0GDHXjYfvqblCgS0UAYLD2JU2bpExQ4JsGMxOF8k2TtisfDI2yuGguBtCE3YJpSft9gCSrbyhsRyEJGtAzA5TywcCU/eCmRH1DY5sBSVSAbg6uuaEBnVSju6oAg90HJEn5D3ji/Rwg8eICpcCWDwDlclJcDuwAhGWa7wHo4CCJaknJ1f3gIFF2KWVXKgOauNOpuLyr9xxCAapLNENZZuEc0NiRY4iodqmzs8UQXliNBJflGaBcXPbLGxwAqKPQpQy7REsa0gjkuG7wEb14qd45sRfN2vLlzEvCnFnsUoZR2R0K5lQHl6sLu/JhzqSWdNiIA1Ckn86d/QPmjEL58lgLOABNAgqMAEWRXS6pBJfpozGn2NYS2bbOOYV6l7T8/gHAnMLMlLxu8AGI65afAwpHM3NOYWZKdWM3AnNO9Q3d+f0cMKcyM2Wwf8CcXQCquaKlrUWeA4z1xpxeaGuF6d0/es4pVKOmFVkcgCCjymoigTmnAhQDSMsRnwMq21bMqZSvNr5xmDOrc+h8pzGnskt18MFhTqWtzXP4gzmLuA8ADAIMmXC04Pp+0hhCAhAk7tvadJ7dTJCIIeQ3QDX2b5hDiG1thc8BQ6iDa5WvKIZQYSgAFJxAktQMSDj2k25N2tbWmRuBREUCbfCNaxeprslFIVEkA5opf5gSBQicP0yJOOl+KMIBiK6qb0icZUGiDq5nVo0pETeuF1aNKdEAUo03yTmgcrA+Jeob2mIADkBbceY5wNglSLw6h85WAxKVi/ZhWJmxMopz4sQkHJCobR1hKfMNQHECALRdNSBRN27EpTk3gC4s30hrxQcgyuAEgLrfhzmE2qXM0T0AKhcFoO/GGBKVsY/CQSIA8huO7PkGoGKNURc/dwDKijPvAfjgyvJJ54C2WOMDUCUnCABlinNOcUVHN8rXVoJwD8C048E43QMQWQ3AUPdhuEEnPSRfPQGVAVFt62AmERJ1cMH7lW/fIFQ4Mw5K7AagUsUJCAyQujGMug6trmPR+G+Urpc0AhDVTqHsxljc5C1AqR/23RydcikTYLap6W+gEOttkXcBRjlUADSXZHYpKmp9MOM6hkw5JsB8g7Sug5NL3MKLg2t2BmVoBieXE6B3aRjViPqj7SVVKfidS6o/Ypivrsr4Da4ozH242Caj3yqwnAdh9vXi5LhAcH2ri51C27JsTqLrbfpBQDcK3pervOu2BgPkJW0mfGjaMjWmjKZELakZ7WuSaIZnZmNZZbaIZqqYQSLtRmFSChJFP6KZ+JmhaxCIkHiGLDmmYQq0kEjnnoyHSDJrR6TKV+4iFDUM0NCFSATPVGKb4bQCeGM2gqyjAMDRsZdBFnKSQrmcvtPIeug+9CErZt1wfZDIBNZwTJCopAO5IdUgAFDEGrJPSjowhCp1IiG2CawidHrm0k7PkuBEjk41CEjkOcS14huAunE9MMfUdamzew77MIRkgEwkiiEkKTWYuoNEmZnJ9+wfDYkKjltj1WhNvrxodS3ghsVSRHMrXMmHRBWPWmFz37J01GimwgskipluiRNYSBS30aIh1qKMyVrg+B4S9f6lQZeI6/MSUE2YWHWYWDvXIKomdGbzfnBVu93a2IvWIg+uHm+Cbth1FcNhPKIfa5KpXM0GEKWZwXi8pLAS/3NANB+tC5E18LaWsQzPKaCYJLx0yUyjmdL80mQSjmZKeIsmQ9BMJG0pss6OZoqlS5ZkSMkct5akH5AljoxLlME6mikMLV7GrSWYB3NDWj6MRxWz3OUzEozHJeemy+ad/UOuMmvCeBRrZP2yBeORtuYsEw40U+aXk34rkFi9c5RWYzabwryigbN5w5R1XTF7NpXZS8I/mXQXEsWup8HbmrqkUNFMvHFqMlhHM1m+VCUdj2Z6y5q0n0YzxRqpyIQjmZpcyvqFUWJGNCVpKlPkilnS5j6FkwdDF2+Y7JMkZSqTX4zVAfAyMo6DI7J4UB3ngM6UVBxSvefLsX1bMUTWACo5Q9IUoDKXCIC6otEkHLHKCxQz+7g5hAaQbZ1DKEDi/CHqql80hciotTWaUieGkM8Mj9LpDUCFcAB4WlKQKU0wj5MxhCL65hPYfUlBs/GhcREPQww1Q2XHHnTcGgo/0Qv6bWXIHKwHne0G82pwzqkI1GgeJ+v3PyGY58860A2euZmgvajhW0PUfBTbvaA1qfN1C14/pzAVP8kXVyb6uw7F7A8AlKeyGah+yMcvNqv8WUdigqjKUDjZH16oKnlcVP4Ru2hNYxuU9eUyL0HlcyhvLJw0DqbAr52x54glyHDCc8zlZaHR1Dy8dJIn3ZUDO1mMci6elcDLXxKYJ1/65Z3nx7Revgf2XCLwF7+pIhZYV1E8W4Kr0clNX62dVOxqZ4gjv9r3H/xx2kV3/PH2O7iPT58/v/6M7radfzcH0etv7tLP/wI=);lineShape=1;strokeColor=#6DC3A9;" vertex="1" parent="1">
          <mxGeometry x="10.336912240099082" y="142.66639259870544" width="221.342577979763" height="135.2838976151109" as="geometry" />
        </mxCell>
        <mxCell id="5NkWNDjoCCJj3G5gSJP5-65" value="" style="shape=stencil(pVjJctswDP0aXzEkwQ3nNP2PzMRpPE3jjJNuf1+oHioiKD2l05ss44kgloflwDevj3cvx0Nwr2+X89fjz9P92+OBPx1COD0/Hi+nN3068O2Bbx7Ol+OXy/n78/3198vdJDk9fTv/mL7w64pLmVKeUMH9vr4J5OTvi89X+afTM5TXFx7IF2Lp5IWEgbyQ8528Z4ppG5A9xdgDCrkCAJFSDwieHFApV/KuByRyeRtQPBVzgpAHdyiJQm9UZnIVAArVXiVO7c0qoDpKBiAUgJUqky8dIAYScIeqCvSXjpkKMGutVqWkSoITRN2UekCkAGJVmJh7QIWOk0SxB2h0ZXAHKRR6lXJqwbIOqJR7s2p0ofAWodyfoNGVgeO8c+R6u5ZIgswklGoPqC0ety4R+5yuvtlhHaAcYQCRPLIrUw09ILecWgc4a1cNLwkg+nL7e+YlRwKIrAbKfXyLvtnJ0V4l0XAFJ5RAtac+jccEgikXir3j3g29xZViTtBPAE8r23NPTOr7APygKWxCQwECTohMxdxBKALHcaZYLKCAS4c6eFqoIoC3tKEAAX7wsdWP5QkgRwOFPkMXSbt+gqXKSSMQSm4IvZlGNuR5cAJys2vVaeFlxPUDJam8BwZyrVwu4jTD+6Zg5RG/+FYGFolTEKlSCVY+gagOto5M8iioyXsrj0hek8ZZeUTxM9su8x74Nw5pX0iAPqN8bU3Wlj6GSwX2bHpfb+V37DmmPNBn9JdAe47xIJDlxnhTzoL5aONZWhv9wXypkLHW8pGhPjbfC+Rc5ZNi5QOolcpXQz4iAvVDlcmQHwL5QR5NLf8qP1WAISEzcEDwtnFUQAQWCjPBLgDIpDoQiLlDgjVDK7G9tPayqHTLEKUR3iHpmGPuwJRBGme30nMVBNAhxJzgIbEX1/Jw0QaiSqmjGvcqVWnktw4YrFSVSwEXjZOX9qoRdabVDoPTJ4Af1Ijc06kqCccctidMEytq+NkSXpaW4luznWnScm6N4VbDb5q0zK0x3LKScVzCmwi1ejCA3D6x5TgTSylAs+rU5PqMi7XF73os1datz4CE9wSpdbozwMOGv7BlVsadmk6joXecEg+j9UtpU9MM8JA11K9itim4eVHWMMGn/QADMk5z8Zj7cYFTfGI7qWkBQPVWA8FutTDNpKE+4AZylN9Z4w0zjoeTo8qnZOQ9WvsN+az3Rd8Pdk3oIKuqvGQj75F92O448MA1bZas/jvyZvu1o09qlP7B+w6JvGPPbONhx1/ZrhJ24uG/18ZWXh/ed9QPp6en64p7+b/daeur6z6cb/8A);lineShape=1;strokeColor=#6DC3A9;" vertex="1" parent="1">
          <mxGeometry x="217.426122193197" y="259.28519801623247" width="22.91493315401605" height="28.883186750535213" as="geometry" />
        </mxCell>
        <mxCell id="5NkWNDjoCCJj3G5gSJP5-68" value="&lt;font style=&quot;font-size: 12px;&quot;&gt;Uma classe é como se fosse uma forma. É possível criar vários objetos a partir de uma classe.&lt;/font&gt;" style="text;html=1;align=center;verticalAlign=middle;resizable=0;points=[];autosize=1;strokeColor=none;fillColor=none;fontSize=16;" vertex="1" parent="1">
          <mxGeometry x="-37" y="456" width="523" height="31" as="geometry" />
        </mxCell>
      </root>
    </mxGraphModel>
  </diagram>
</mxfile>
